<svg style="display:none;" xmlns="http://www.w3.org/2000/svg" xmlns:xlink="http://www.w3.org/1999/xlink">


	<symbol id="svg_login_user" viewBox="0 0 358.4 345.6">
		<path d="M223.5,242.7c-8.8-1.4-9-25.7-9-25.7s26-25.7,31.7-60.3c15.2,0,24.6-36.8,9.4-49.7C256.2,93.3,275.1,0,179.2,0
		c-95.9,0-77,93.3-76.3,106.9c-15.2,12.9-5.8,49.7,9.4,49.7c5.7,34.6,31.7,60.3,31.7,60.3s-0.2,24.3-9,25.7
		C106.4,247.2,0,294.1,0,345.6h358.4C358.4,294.1,252,247.2,223.5,242.7L223.5,242.7z M223.5,242.7"/>
	</symbol>


	<symbol id="svg_login_password" viewBox="0 0 208.6 303.8">
		<path d="M197.1,131V92.8c0-51.2-41.6-92.8-92.8-92.8S11.5,41.6,11.5,92.8v37.8c-5.8,2.2-11.5,7.2-11.5,17v52
		c0,57.5,46.8,104.3,104.3,104.3c57.5,0,104.3-46.8,104.3-104.3v-52C208.6,138.3,203,133.3,197.1,131L197.1,131z M124.1,242.6
		c0.3,1.7-0.8,3.1-2.6,3.1h-34c-1.8,0-2.9-1.4-2.6-3.1l5.4-28.9c-4.2-3.8-6.8-9.3-6.8-15.3c0-11.5,9.3-20.7,20.7-20.7
		c11.5,0,20.8,9.3,20.8,20.7c0,5.9-2.5,11.2-6.4,15L124.1,242.6z M165.1,129.1H43.5V92.8c0-33.5,27.3-60.8,60.8-60.8
		c33.5,0,60.8,27.3,60.8,60.8V129.1z M165.1,129.1"/>
	</symbol>


	<symbol id="google_plus_icon" viewBox="0 0 96.828 96.827">
		<path d="M62.617,0H39.525c-10.29,0-17.413,2.256-23.824,7.552c-5.042,4.35-8.051,10.672-8.051,16.912
			c0,9.614,7.33,19.831,20.913,19.831c1.306,0,2.752-0.134,4.028-0.253l-0.188,0.457c-0.546,1.308-1.063,2.542-1.063,4.468
			c0,3.75,1.809,6.063,3.558,8.298l0.22,0.283l-0.391,0.027c-5.609,0.384-16.049,1.1-23.675,5.787
			c-9.007,5.355-9.707,13.145-9.707,15.404c0,8.988,8.376,18.06,27.09,18.06c21.76,0,33.146-12.005,33.146-23.863
			c0.002-8.771-5.141-13.101-10.6-17.698l-4.605-3.582c-1.423-1.179-3.195-2.646-3.195-5.364c0-2.672,1.772-4.436,3.336-5.992
			l0.163-0.165c4.973-3.917,10.609-8.358,10.609-17.964c0-9.658-6.035-14.649-8.937-17.048h7.663c0.094,0,0.188-0.026,0.266-0.077
			l6.601-4.15c0.188-0.119,0.276-0.348,0.214-0.562C63.037,0.147,62.839,0,62.617,0z M34.614,91.535
			c-13.264,0-22.176-6.195-22.176-15.416c0-6.021,3.645-10.396,10.824-12.997c5.749-1.935,13.17-2.031,13.244-2.031
			c1.257,0,1.889,0,2.893,0.126c9.281,6.605,13.743,10.073,13.743,16.678C53.141,86.309,46.041,91.535,34.614,91.535z
			 M34.489,40.756c-11.132,0-15.752-14.633-15.752-22.468c0-3.984,0.906-7.042,2.77-9.351c2.023-2.531,5.487-4.166,8.825-4.166
			c10.221,0,15.873,13.738,15.873,23.233c0,1.498,0,6.055-3.148,9.22C40.94,39.337,37.497,40.756,34.489,40.756z"/>
		<path d="M94.982,45.223H82.814V33.098c0-0.276-0.225-0.5-0.5-0.5H77.08c-0.276,0-0.5,0.224-0.5,0.5v12.125H64.473
			c-0.276,0-0.5,0.224-0.5,0.5v5.304c0,0.275,0.224,0.5,0.5,0.5H76.58V63.73c0,0.275,0.224,0.5,0.5,0.5h5.234
			c0.275,0,0.5-0.225,0.5-0.5V51.525h12.168c0.276,0,0.5-0.223,0.5-0.5v-5.302C95.482,45.446,95.259,45.223,94.982,45.223z"/>
	</symbol>


	<symbol id="pinterest_icon" viewBox="0 0 310.05 310.05">
		<path id="XMLID_799_" d="M245.265,31.772C223.923,11.284,194.388,0,162.101,0c-49.32,0-79.654,20.217-96.416,37.176
		c-20.658,20.9-32.504,48.651-32.504,76.139c0,34.513,14.436,61.003,38.611,70.858c1.623,0.665,3.256,1,4.857,1
		c5.1,0,9.141-3.337,10.541-8.69c0.816-3.071,2.707-10.647,3.529-13.936c1.76-6.495,0.338-9.619-3.5-14.142
		c-6.992-8.273-10.248-18.056-10.248-30.788c0-37.818,28.16-78.011,80.352-78.011c41.412,0,67.137,23.537,67.137,61.425
		c0,23.909-5.15,46.051-14.504,62.35c-6.5,11.325-17.93,24.825-35.477,24.825c-7.588,0-14.404-3.117-18.705-8.551
		c-4.063-5.137-5.402-11.773-3.768-18.689c1.846-7.814,4.363-15.965,6.799-23.845c4.443-14.392,8.643-27.985,8.643-38.83
		c0-18.55-11.404-31.014-28.375-31.014c-21.568,0-38.465,21.906-38.465,49.871c0,13.715,3.645,23.973,5.295,27.912
		c-2.717,11.512-18.865,79.953-21.928,92.859c-1.771,7.534-12.44,67.039,5.219,71.784c19.841,5.331,37.576-52.623,39.381-59.172
		c1.463-5.326,6.582-25.465,9.719-37.845c9.578,9.226,25,15.463,40.006,15.463c28.289,0,53.73-12.73,71.637-35.843
		c17.367-22.418,26.932-53.664,26.932-87.978C276.869,77.502,265.349,51.056,245.265,31.772z"/>
	</symbol>


	<symbol id="twitter_icon" viewBox="0 0 430.117 430.117">
		<path id="Twitter__x28_alt_x29_" d="M381.384,198.639c24.157-1.993,40.543-12.975,46.849-27.876
		c-8.714,5.353-35.764,11.189-50.703,5.631c-0.732-3.51-1.55-6.844-2.353-9.854c-11.383-41.798-50.357-75.472-91.194-71.404
		c3.304-1.334,6.655-2.576,9.996-3.691c4.495-1.61,30.868-5.901,26.715-15.21c-3.5-8.188-35.722,6.188-41.789,8.067
		c8.009-3.012,21.254-8.193,22.673-17.396c-12.27,1.683-24.315,7.484-33.622,15.919c3.36-3.617,5.909-8.025,6.45-12.769
		C241.68,90.963,222.563,133.113,207.092,174c-12.148-11.773-22.915-21.044-32.574-26.192
		c-27.097-14.531-59.496-29.692-110.355-48.572c-1.561,16.827,8.322,39.201,36.8,54.08c-6.17-0.826-17.453,1.017-26.477,3.178
		c3.675,19.277,15.677,35.159,48.169,42.839c-14.849,0.98-22.523,4.359-29.478,11.642c6.763,13.407,23.266,29.186,52.953,25.947
		c-33.006,14.226-13.458,40.571,13.399,36.642C113.713,320.887,41.479,317.409,0,277.828
		c108.299,147.572,343.716,87.274,378.799-54.866c26.285,0.224,41.737-9.105,51.318-19.39
		C414.973,206.142,393.023,203.486,381.384,198.639z"/>
	</symbol>


	<symbol id="linkedin_icon" viewBox="0 0 430.117 430.117">
		<path d="M430.117,261.543V420.56h-92.188V272.193c0-37.271-13.334-62.707-46.703-62.707
		c-25.473,0-40.632,17.142-47.301,33.724c-2.432,5.928-3.058,14.179-3.058,22.477V420.56h-92.219c0,0,1.242-251.285,0-277.32h92.21
		v39.309c-0.187,0.294-0.43,0.611-0.606,0.896h0.606v-0.896c12.251-18.869,34.13-45.824,83.102-45.824
		C384.633,136.724,430.117,176.361,430.117,261.543z M52.183,9.558C20.635,9.558,0,30.251,0,57.463
		c0,26.619,20.038,47.94,50.959,47.94h0.616c32.159,0,52.159-21.317,52.159-47.94C103.128,30.251,83.734,9.558,52.183,9.558z
		 M5.477,420.56h92.184v-277.32H5.477V420.56z"/>
	</symbol>


	<symbol id="google" viewBox="0 0 48.05 48.05">
		<path d="M0,0V48H48V0H0ZM28,26c-0.82,5.4-4.85,8.49-10.06,8.49a10.6,10.6,0,1,1,0-21.2,10.06,10.06,0,0,1,7.12,2.76l-3,3A5.59,5.59,0,0,0,18,17.55a6.37,6.37,0,0,0-6.24,6.38A6.29,6.29,0,0,0,18,30.24c2.89,0,5.08-1.4,5.71-4.19H18V21.79H28a12.43,12.43,0,0,1,.18,2.15A14,14,0,0,1,28,26Zm12.73-1.32H37v3.71H34.39V24.72H30.67V22.08h3.71V18.37H37v3.71h3.71v2.64Z"/>
	</symbol>


	<symbol id="linkedin" viewBox="0 0 47.94 48">
		<path d="M0.08,0V48H48V0H0.08Zm14.74,39.6a1.11,1.11,0,0,1-1.11,1.11H9A1.11,1.11,0,0,1,7.9,39.62V19.53A1.11,1.11,0,0,1,9,18.42h4.71a1.11,1.11,0,0,1,1.11,1.11v20.1ZM11.35,15.35a4,4,0,1,1,4-4A4,4,0,0,1,11.35,15.35ZM40.83,40.27h0a0.46,0.46,0,0,1-.46.46h-6a0.46,0.46,0,0,1-.46-0.46V27.86A3.88,3.88,0,0,0,30,24a3.92,3.92,0,0,0-3.84,3.93V40.27a0.46,0.46,0,0,1-.46.46h-6a0.46,0.46,0,0,1-.46-0.46V18.88a0.46,0.46,0,0,1,.46-0.46h5.88a0.46,0.46,0,0,1,.46.46v2.47h0.06A6.78,6.78,0,0,1,32,17.85h1.21a7.63,7.63,0,0,1,7.63,7.63v14.8Z" transform="translate(-0.08 -0.02)"/>
	</symbol>

    <symbol id="facebook" viewBox="0 0 95.333 95.333">
        <path d="M93.333,0H2C0.896,0,0,0.896,0,2v91.332c0,1.104,0.896,2,2,2h48.525V63.477H40.284c-0.885,0-1.602-0.717-1.602-1.602
        		V48.961c0-0.885,0.717-1.603,1.602-1.603h10.242v-8.913c0-11.744,7.395-19.332,18.839-19.332l10.188,0.016
        		c0.883,0.001,1.6,0.718,1.6,1.602v11.991c0,0.885-0.717,1.602-1.602,1.602l-6.863,0.003c-4.729,0-5.595,1.844-5.595,5.475v7.556
        		h11.979c0.425,0,0.832,0.169,1.133,0.47c0.3,0.301,0.469,0.708,0.469,1.133L80.67,61.876c0,0.885-0.717,1.603-1.602,1.603H67.092
        		v31.854h26.24c1.104,0,2-0.896,2-2V2C95.333,0.895,94.438,0,93.333,0z"/>
	</symbol>


	<symbol id="facebook_icon" viewBox="0 0 430.113 430.114">
		<path d="M158.081,83.3c0,10.839,0,59.218,0,59.218h-43.385v72.412h43.385v215.183h89.122V214.936h59.805
		c0,0,5.601-34.721,8.316-72.685c-7.784,0-67.784,0-67.784,0s0-42.127,0-49.511c0-7.4,9.717-17.354,19.321-17.354
		c9.586,0,29.818,0,48.557,0c0-9.859,0-43.924,0-75.385c-25.016,0-53.476,0-66.021,0C155.878-0.004,158.081,72.48,158.081,83.3z"/>
	</symbol>


	<symbol id="youtube_icon" viewBox="0 0 90 90">
		<path d="M70.939,65.832H66l0.023-2.869c0-1.275,1.047-2.318,2.326-2.318h0.315c1.282,0,2.332,1.043,2.332,2.318
		L70.939,65.832z M52.413,59.684c-1.253,0-2.278,0.842-2.278,1.873V75.51c0,1.029,1.025,1.869,2.278,1.869
		c1.258,0,2.284-0.84,2.284-1.869V61.557C54.697,60.525,53.671,59.684,52.413,59.684z M82.5,51.879v26.544
		C82.5,84.79,76.979,90,70.23,90H19.771C13.02,90,7.5,84.79,7.5,78.423V51.879c0-6.367,5.52-11.578,12.271-11.578H70.23
		C76.979,40.301,82.5,45.512,82.5,51.879z M23.137,81.305l-0.004-27.961l6.255,0.002v-4.143l-16.674-0.025v4.073l5.205,0.015v28.039
		H23.137z M41.887,57.509h-5.215v14.931c0,2.16,0.131,3.24-0.008,3.621c-0.424,1.158-2.33,2.388-3.073,0.125
		c-0.126-0.396-0.015-1.591-0.017-3.643l-0.021-15.034h-5.186l0.016,14.798c0.004,2.268-0.051,3.959,0.018,4.729
		c0.127,1.357,0.082,2.939,1.341,3.843c2.346,1.69,6.843-0.252,7.968-2.668l-0.01,3.083l4.188,0.005L41.887,57.509L41.887,57.509z
		 M58.57,74.607L58.559,62.18c-0.004-4.736-3.547-7.572-8.356-3.74l0.021-9.239l-5.209,0.008l-0.025,31.89l4.284-0.062l0.39-1.986
		C55.137,84.072,58.578,80.631,58.57,74.607z M74.891,72.96l-3.91,0.021c-0.002,0.155-0.008,0.334-0.01,0.529v2.182
		c0,1.168-0.965,2.119-2.137,2.119h-0.766c-1.174,0-2.139-0.951-2.139-2.119V75.45v-2.4v-3.097h8.954v-3.37
		c0-2.463-0.063-4.925-0.267-6.333c-0.641-4.454-6.893-5.161-10.051-2.881c-0.991,0.712-1.748,1.665-2.188,2.945
		c-0.444,1.281-0.665,3.031-0.665,5.254v7.41C61.714,85.296,76.676,83.555,74.891,72.96z M54.833,32.732
		c0.269,0.654,0.687,1.184,1.254,1.584c0.56,0.394,1.276,0.592,2.134,0.592c0.752,0,1.418-0.203,1.998-0.622
		c0.578-0.417,1.065-1.04,1.463-1.871l-0.099,2.046h5.813V9.74H62.82v19.24c0,1.042-0.858,1.895-1.907,1.895
		c-1.043,0-1.904-0.853-1.904-1.895V9.74h-4.776v16.674c0,2.124,0.039,3.54,0.102,4.258C54.4,31.385,54.564,32.069,54.833,32.732z
		 M37.217,18.77c0-2.373,0.198-4.226,0.591-5.562c0.396-1.331,1.107-2.401,2.137-3.208c1.027-0.811,2.342-1.217,3.941-1.217
		c1.345,0,2.497,0.264,3.459,0.781c0.967,0.52,1.713,1.195,2.23,2.028c0.527,0.836,0.885,1.695,1.076,2.574
		c0.195,0.891,0.291,2.235,0.291,4.048v6.252c0,2.293-0.092,3.98-0.271,5.051c-0.177,1.074-0.557,2.07-1.146,3.004
		c-0.58,0.924-1.329,1.615-2.237,2.056c-0.918,0.445-1.968,0.663-3.154,0.663c-1.325,0-2.441-0.183-3.361-0.565
		c-0.923-0.38-1.636-0.953-2.144-1.714c-0.513-0.762-0.874-1.69-1.092-2.772c-0.219-1.081-0.323-2.707-0.323-4.874L37.217,18.77
		L37.217,18.77z M41.77,28.59c0,1.4,1.042,2.543,2.311,2.543c1.27,0,2.308-1.143,2.308-2.543V15.43c0-1.398-1.038-2.541-2.308-2.541
		c-1.269,0-2.311,1.143-2.311,2.541V28.59z M25.682,35.235h5.484l0.006-18.96l6.48-16.242h-5.998l-3.445,12.064L24.715,0h-5.936
		l6.894,16.284L25.682,35.235z"/>
	</symbol>


	<symbol id="s_glass_icon" viewBox="0 0 103.3 102.7">
		<path d="M101,90.6L69.7,59.3c4.1-6.1,6.2-13.2,6.2-20.6c0-9.9-3.9-19.3-10.9-26.3c-7-7-16.3-10.9-26.3-10.9S19.6,5.4,12.5,12.4
		c-7,7-10.9,16.3-10.9,26.3s3.9,19.3,10.9,26.3s16.3,10.9,26.3,10.9c7.5,0,14.7-2.2,20.8-6.4l31.3,31.3c1.1,1.1,3,0.8,4.3-0.5
		l5.3-5.3C101.8,93.6,102.1,91.6,101,90.6z M38.8,65.7c-14.9,0-27.1-12.2-27.1-27.1s12.2-27.1,27.1-27.1s27.1,12.2,27.1,27.1
		S53.8,65.7,38.8,65.7z"/>
	</symbol>


	<symbol id="prew_arrow" viewBox="0 0 477.175 477.175">
		<path d="M145.188,238.575l215.5-215.5c5.3-5.3,5.3-13.8,0-19.1s-13.8-5.3-19.1,0l-225.1,225.1c-5.3,5.3-5.3,13.8,0,19.1l225.1,225
		c2.6,2.6,6.1,4,9.5,4s6.9-1.3,9.5-4c5.3-5.3,5.3-13.8,0-19.1L145.188,238.575z"/>
	</symbol>


	<symbol id="next_arrow" viewBox="0 0 477.175 477.175">
		<path d="M360.731,229.075l-225.1-225.1c-5.3-5.3-13.8-5.3-19.1,0s-5.3,13.8,0,19.1l215.5,215.5l-215.5,215.5
		c-5.3,5.3-5.3,13.8,0,19.1c2.6,2.6,6.1,4,9.5,4c3.4,0,6.9-1.3,9.5-4l225.1-225.1C365.931,242.875,365.931,234.275,360.731,229.075z
		"/>
	</symbol>


	<symbol id="svg_pen" viewBox="0 0 214.8 215">
		<defs>
			<rect id="SVGID_1_" x="0" y="0.2" width="214.8" height="214.8"/>
		</defs>
		<clipPath id="SVGID_2_">
			<use xlink:href="#SVGID_1_"  style="overflow:visible;"/>
		</clipPath>
		<path class="st0" d="M129,45.1c-5.6-5.6-14.8-5.6-20.4,0l-5.1,5.1l-71.4,71.5l0,0l-2.3,2.3c0,0-7.2,7.2-23.4,59.5
			c-0.1,0.4-0.2,0.7-0.3,1.1c-0.3,0.9-0.6,1.9-0.9,2.9c-0.3,0.9-0.5,1.7-0.8,2.6c-0.2,0.7-0.4,1.5-0.7,2.2c-0.5,1.7-1,3.5-1.6,5.3
			c-1.2,3.9-4,12.9-0.8,16.1c3.1,3.1,12.1,0.4,16-0.8c1.8-0.5,3.5-1,5.2-1.6c0.8-0.2,1.5-0.5,2.3-0.7c0.8-0.3,1.6-0.5,2.4-0.8
			c1-0.3,2-0.6,3-0.9c0.3-0.1,0.6-0.2,0.9-0.3c49.8-15.5,58.7-22.8,59.4-23.4c0,0,0,0,0,0c0,0,0.1,0,0.1,0l2.3-2.3l0.2,0.2
			l71.4-71.5l5.1-5.1c5.6-5.6,5.6-14.8,0-20.4L129,45.1z M82.6,175.8c-0.1,0-0.1,0.1-0.2,0.2c-0.1,0-0.1,0.1-0.2,0.1
			c-0.1,0-0.1,0.1-0.2,0.1c-0.1,0-0.1,0.1-0.2,0.1c-2.4,1.4-9.3,5.1-26.3,11.2c-2,0.7-4.1,1.5-6.4,2.3l-24-24.1
			c0.8-2.3,1.5-4.4,2.3-6.4c6.1-17,9.8-24,11.2-26.4c0-0.1,0.1-0.1,0.1-0.2c0.1-0.1,0.1-0.2,0.1-0.2c0-0.1,0.1-0.1,0.1-0.2
			c0.1-0.1,0.1-0.2,0.2-0.2l1.8-1.8L84.4,174L82.6,175.8z M210.6,45.1L169.8,4.2c-5.6-5.6-14.8-5.6-20.4,0l-10.2,10.2
			c-5.6,5.6-5.6,14.8,0,20.4L180,75.7c5.6,5.6,14.8,5.6,20.4,0l10.2-10.2C216.2,59.8,216.2,50.7,210.6,45.1L210.6,45.1z M210.6,45.1
			"/>
	</symbol>


	<symbol id="svg_twitter" viewBox="0 0 409.7 334.8">
		<defs>
			<rect id="SVGID_1_" x="0" y="0.2" width="214.8" height="214.8"/>
		</defs>
		<clipPath id="SVGID_2_">
			<use xlink:href="#SVGID_1_"  style="overflow:visible;"/>
		</clipPath>
		<path d="M0,286.5c2.7-5.8,7.3-7.2,13.4-6.5c21.4,2.6,42.6,1.6,63.3-4.7c9.7-2.9,18.9-7.1,27.8-13.4c-1.9-0.7-3.4-1.2-5-1.8
		c-27.2-9.5-44.9-28.2-53.7-55.5c-1.6-5.1,0.2-9.1,4.4-11.9c-4.8-5-9.8-9.5-14.1-14.8c-13.6-16.5-18.6-35.9-18.5-56.9
		c0-6.9,5-10.5,13.2-9.2c-1-1.9-1.8-3.4-2.7-5c-14.6-28.2-15.3-56.3,0.1-84.4c4.3-7.8,11-8.6,17.1-2.1
		c21.7,23.3,46.2,43.1,74.5,57.9c21.6,11.3,44.4,18.7,68.9,20c0.8,0,1.6,0,2.9,0c-0.1-1.6-0.1-3.2-0.2-4.7
		c-3.6-44.8,30.5-86.8,75-92.6c26.4-3.4,49.8,3.3,70.3,20.4c1.4,1.2,3.8,1.8,5.7,1.7c14.3-1,27.3-5.8,39.1-13.8
		c1.4-1,2.9-1.9,4.6-2.4c6.4-2,12.3,3,11.8,10c-0.6,8.3-4.3,15.3-8.9,21.9c-0.9,1.3-1.8,2.5-2.1,4.4c2.7-1.3,5.4-2.6,8-4
		c4.6-2.4,8.6-2.2,11.8,0.9c3.2,3.1,4.3,7.1,1.4,11.3c-6.2,8.8-12.8,17.3-19.8,25.4c-4.9,5.7-10.7,10.8-16.3,16
		c-2.2,2.1-3.1,4.1-3.2,7.2c-1.6,52.3-15.7,100.5-46.9,143.1c-21.7,29.6-49.8,51.6-82.9,67.4c-18.9,9.1-38.6,16.2-59.2,20.2
		c-29.2,5.6-58.6,5.6-87.9,1.1C63.7,327.2,37,318.5,13,302.7c-4.8-3.2-10.3-5.8-13-11.4C0,289.7,0,288.1,0,286.5z M47.8,300
		c-0.1-0.1,0,0.2,0.2,0.3c1,0.5,1.9,0.9,2.9,1.3c23,9.2,47,13.5,71.7,14.3c18.6,0.6,37.1,0,55.3-4c19.9-4.4,39.1-11.3,57.4-20.5
		c28.8-14.6,53.2-34.3,72.3-60.5c27.7-38,41-81.1,42.4-127.6c0.3-11.8,3.1-20.4,12.5-27.2c3.7-2.7,6.6-6.6,10.2-10.3
		c-5.2,0.6-9.8,1.3-14.4,1.7c-5.4,0.4-8.7-1.4-10.4-5.6c-1.7-4-0.6-7.7,3.5-11.3c2.2-1.9,4.5-3.7,6.7-5.7c2.4-2.1,4.7-4.4,7.1-6.6
		c-8.6,1.2-16.9,2.3-25.1,3.5c-5.9,0.9-10.4-1.5-14.7-5.5c-31.1-28.9-82.6-21.6-104.9,14.5c-10.2,16.5-13,34.1-8.9,52.9
		c1.7,7.9-2.1,12.7-9.7,13c-23.5,0.9-46.1-3.4-68-11.8C105,93.8,79.5,77.1,56.3,56.7c-5.4-4.8-10.7-9.8-16.4-14.9
		c-4.3,11.1-5.4,22-3.5,33.3c3.2,18.9,13.1,34.1,26.6,47.2c3.5,3.3,5.6,6.9,3.8,11.7c-1.8,4.8-6,6.4-10.6,6.1
		c-6.2-0.5-12.3-1.5-18.5-2.2c0-0.1-0.1,0.3,0,0.7c0.6,2.6,1.2,5.2,2,7.7c7.8,23.7,24.8,37.5,47.9,44.5c5.7,1.7,8.4,4.5,8.5,9.2
		c0.1,4.7-2.3,8.1-7.9,9.6c-6,1.6-12.2,2.3-18.4,3.5c0.2,0.4,0.5,1.2,1,2c12.2,19.8,30.5,29.4,53.2,31.4c4.6,0.4,8.5,1.6,10.2,6.2
		c1.8,4.6-0.3,8.1-3.5,11.4c-14.8,15.5-33,25.1-53.5,30.4C67.5,296.9,57.5,298.2,47.8,300z"/>
	</symbol>


	<symbol id="svg_phone" viewBox="0 0 409.9 409.5">
			<path d="M86.4,0c11.4,1.9,19.6,8.8,27.3,16.7C128,31.3,142.6,45.5,157,60c10.9,11,14.9,24,9.4,38.7c-2,5.4-5.8,10.4-9.7,14.8
		c-6.3,7.1-13.3,13.5-20,20.2c-12.7,12.8-12.8,29-0.1,41.7c32.4,32.5,64.8,64.9,97.2,97.3c12.8,12.8,28.9,12.7,41.7,0
		c7.6-7.5,14.8-15.4,22.8-22.4c15-13.1,33.9-13.5,48.5,0.1c18.2,17,35.9,34.6,52.9,52.8c13.9,14.9,13.5,34.5-0.7,49.3
		c-11.3,11.8-23,23.5-36.2,33.1c-27.1,19.9-58.1,26.8-91.5,22.5c-30.4-4-55.7-17.8-77.1-39.3c-51.4-51.5-102.9-103-154.3-154.4
		C17,191.6,3.5,164.2,0.6,131.9c-0.1-1-0.4-2-0.6-3.1c0-5.6,0-11.2,0-16.8c0.2-1.3,0.6-2.6,0.7-3.9c2.4-22.8,9.6-44,23.5-62.3
		C32,35.4,41.5,26.3,50.3,16.7C57.7,8.5,66.2,1.9,77.6,0C80.5,0,83.5,0,86.4,0z M48.1,53.6c-14.8,18.2-23.1,39-24,62.3
		c-1.3,31.4,9.6,58.2,31.7,80.4c52.3,52.5,104.4,105.2,157.2,157.2c33.2,32.7,72.5,40.5,116.2,24c9.8-3.7,18.7-9.4,26.4-15.9
		c-22.6-22.6-45-45-67.4-67.4c-2.7,1.8-5.6,4-8.7,5.7c-20.7,11.4-44.7,7.7-62.3-9.8c-26.4-26.3-52.8-52.8-79.1-79.2
		c-7.3-7.4-14.9-14.5-21.9-22.2c-15.6-17.1-17.4-42.8-4.6-62.1c1.3-2,2.7-3.9,3.8-5.5C92.9,98.5,70.6,76.1,48.1,53.6z M306,275.8
		c22.9,22.9,45.4,45.4,68.3,68.3c1.9-2,4.1-4.3,6.3-6.5c6.8-6.9,6.8-13.2,0-20.1c-10.4-10.5-20.9-20.9-31.4-31.4
		c-5.8-5.8-11.6-11.7-17.5-17.5c-5.5-5.4-12.1-5.4-17.8-0.1C311.1,271,308.4,273.6,306,275.8z M133.6,103.9c1.7-2,3.4-4.2,5.2-6
		c8.3-8.4,8.3-13.9-0.2-22.3c-6.7-6.7-13.4-13.4-20.1-20c-9.2-9.1-18.3-18.3-27.5-27.4c-4.6-4.5-10.2-5.7-14.8-2.4
		c-4,2.8-7.4,6.6-11,9.9C88,58.4,110.4,80.7,133.6,103.9z"/>
	<path d="M302.2,204.5c0-6.4-0.2-12.5,0.1-18.6c0.1-1.5,1.3-3.1,2.4-4.3c14.6-15.7,29.5-31.2,43.9-47.1c5.9-6.5,11.2-13.5,16.3-20.7
		c4-5.7,5.7-12.2,4.8-19.3c-1.1-9.5-5.8-15.3-14.1-17.1c-9.5-2.1-18.4,1.2-22.7,9.3c-2.4,4.5-3.3,9.7-5.1,15.1c-8.8,0-18.4,0-28.9,0
		c0.4-3.7,0.6-7.3,1.4-10.9c4.9-22,23.4-37.2,47-37.9c7-0.2,14.2,0.2,21,1.8c30.5,7,35.1,34,29.7,53.4c-2.9,10.5-8.7,19.5-15.8,27.5
		c-12.4,13.9-25.3,27.4-38,41.1c-1,1.1-2,2.1-3.7,4c11.3,0,21.9,0,32.4,0c10.5,0,21,0,31.7,0c0,8.1,0,15.8,0,23.7
		C370.6,204.5,336.7,204.5,302.2,204.5z"/>
	</symbol>


	<symbol id="svg_phone2" viewBox="0 0 409.9 409.5">
		<path d="M86.4,0c11.4,1.9,19.6,8.8,27.3,16.7C128,31.3,142.6,45.5,157,60c10.9,11,14.9,24,9.4,38.7c-2,5.4-5.8,10.4-9.7,14.8
		c-6.3,7.1-13.3,13.5-20,20.2c-12.7,12.8-12.8,29-0.1,41.7c32.4,32.5,64.8,64.9,97.2,97.3c12.8,12.8,28.9,12.7,41.7,0
		c7.6-7.5,14.8-15.4,22.8-22.4c15-13.1,33.9-13.5,48.5,0.1c18.2,17,35.9,34.6,52.9,52.8c13.9,14.9,13.5,34.5-0.7,49.3
		c-11.3,11.8-23,23.5-36.2,33.1c-27.1,19.9-58.1,26.8-91.5,22.5c-30.4-4-55.7-17.8-77.1-39.3c-51.4-51.5-102.9-103-154.3-154.4
		C17,191.6,3.5,164.2,0.6,131.9c-0.1-1-0.4-2-0.6-3.1c0-5.6,0-11.2,0-16.8c0.2-1.3,0.6-2.6,0.7-3.9c2.4-22.8,9.6-44,23.5-62.3
		C32,35.4,41.5,26.3,50.3,16.7C57.7,8.5,66.2,1.9,77.6,0C80.5,0,83.5,0,86.4,0z M48,53.7c-14.8,18.1-23,38.9-23.9,62.4
		c-1.2,31.2,9.6,58,31.6,80.1c52.4,52.6,104.8,105.2,157.5,157.5c26.3,26.1,58,36.4,94.6,30.2c18.1-3,34.1-10.9,47.7-22.1
		c-22.5-22.5-45-45-67.4-67.4c-2.6,1.7-5.5,3.9-8.6,5.6c-20.8,11.3-44.6,7.5-62.2-10.1c-31.3-31.3-62.6-62.6-93.8-93.9
		c-2.4-2.5-5-4.9-7.2-7.5c-11.2-13.1-15.2-28.1-11.6-45c1.8-8.5,5.8-15.9,11-22.3C93,98.7,70.7,76.3,48,53.7z M306.5,275.8
		c22.9,22.9,45.3,45.3,67.8,67.8c2.5-2.4,5.4-5.1,8.1-8c4.4-4.9,4.5-11.5-0.1-16.2c-17-17.2-34.2-34.4-51.4-51.4
		c-4.7-4.6-11.3-4.4-16.3,0C311.6,270.6,308.8,273.5,306.5,275.8z M65.4,35.2c23,23,45.4,45.4,68.2,68.2c2.1-2.2,4.4-4.7,6.8-7.2
		c6-6.2,6-12.7-0.1-18.9c-6.4-6.4-12.8-12.8-19.2-19.2c-10-10-20-20-30-29.9C85.4,22.6,78.8,22.6,73,28
		C70.4,30.5,67.8,32.9,65.4,35.2z"/>
	</symbol>


	<symbol id="svg_pin" viewBox="0 0 328.9 409.6">
		<path d="M174.8,0c8.4,1.3,16.9,2.1,25.2,4.1c50.8,12.3,88.5,41.5,111.7,88.4c23.1,46.9,22.4,94.5,1.3,142
		c-20.8,46.9-50.8,87.5-87,123.4c-16.8,16.7-35,32-52.7,47.8c-6,5.3-11.4,5.2-17.6,0.2c-34.5-28-66.2-58.7-93.3-94
		c-20.9-27.2-38.7-56.2-50.9-88.3c-14.8-38.7-15.3-77.7-0.7-116.7C21.7,77.3,40,53,65,33.8c22.1-17,47-27.4,74.5-31.9
		c4.6-0.7,9.2-1.3,13.8-1.9C160.4,0,167.6,0,174.8,0z M164.5,383.5c12.5-11.4,24.8-22.1,36.5-33.4c37.7-36.6,69.5-77.5,91-125.8
		c12.9-29,16.5-58.8,10.1-89.7c-4.4-21-13.3-40.1-26.7-57c-24.7-31-56.8-49.1-96.1-53.5c-32.3-3.6-62.6,3.5-90.1,21
		c-30.3,19.4-50.6,46.5-60.5,81.1c-7.5,26.4-7.3,53,1,79.2c8.1,25.6,21,48.9,35.8,71.1c20.1,30.2,44.2,57.1,70.7,81.8
		C145.2,366.7,154.6,374.7,164.5,383.5z"/>
	<path d="M164.5,61.7c57.5,0.3,104.3,47.4,104,104.7c-0.4,57.4-47.4,104.2-104.3,103.9c-57.6-0.4-104.5-47.6-103.9-104.7
		C60.8,107.9,107.5,61.4,164.5,61.7z M83.3,166c0,44.7,36.7,81.3,81.2,81.1c44.6-0.3,80.8-36.5,80.8-81.1
		c0-44.7-36.7-81.4-81.2-81.1C119.5,85.2,83.3,121.5,83.3,166z"/>
	</symbol>


	<symbol id="svg_pencil" viewBox="0 0 409.6 409.6">
		<path d="M0,390.4c4.3-14.9,8.6-29.9,12.8-44.8c7.8-27.8,15.4-55.7,23.4-83.4c1.1-3.8,3.3-7.7,6.1-10.5
		C117.7,176,193.3,100.4,268.9,24.8C282.5,11.3,298.6,3,317.7,0.7c0.8-0.1,1.5-0.5,2.3-0.7c5.3,0,10.7,0,16,0
		c6.9,1.8,14,3.1,20.7,5.5c46.5,16.6,67.4,74.7,42,117c-4.1,6.8-9.1,13.2-14.7,18.8c-56.4,56.5-113,112.9-169.5,169.3
		c-5.1,5.1-10.8,7.8-18,5.4c-10.3-3.3-14.2-15.7-7.9-24.4c1.2-1.6,2.6-3,4-4.4c31.2-31.2,62.5-62.3,93.7-93.4c1-1,2.3-1.8,3.1-2.4
		c-23.8-23.8-47.2-47.2-70.1-70.1c-47.3,47.3-95.3,95.3-143.4,143.4c0.3,0.3,1.4,1.5,2.5,2.6c25.6,25.7,51.2,51.4,76.8,77.1
		c7.1,7.1,8.1,16.3,2,22.8c-2.3,2.5-5.7,4.5-9,5.5c-41.9,12.1-83.9,24-125.9,35.9c-10.8,3.1-16.8-0.1-22.3-11.7
		C0,394.7,0,392.5,0,390.4z M358.5,121.6c15.1-13.3,22.1-29.8,17.9-50.1c-4-19.8-20.1-35.3-39.2-38.6c-20-3.4-36.2,3.4-49.2,18.2
		C311.6,74.7,334.9,98.1,358.5,121.6z M242.8,96.9c23.3,23.3,46.7,46.7,69.8,69.8c7.2-7.3,14.7-14.8,21.6-21.8
		c-23.2-23.2-46.6-46.6-69.7-69.7C257.5,82.2,250,89.6,242.8,96.9z M39,370.4c25.6-7.3,50.4-14.3,75.2-21.4
		c-18.3-18.2-36.2-36-54.2-53.8C53.1,319.9,46.2,344.8,39,370.4z"/>
	</symbol>


	<symbol id="svg_facebook" viewBox="0 0 245 409.6">
		<path d="M236.9,0c6.5,2.7,8.1,4.9,8.1,12.1c0,17.2,0,34.4,0,51.6c0,8.6-3.5,12-12.2,12.1c-10.9,0.1-21.9-0.2-32.8,0.3
		c-10.8,0.4-20.6,3.9-26.9,13.3c-2.7,4.1-5,9.1-5.4,13.9c-0.9,9.1-0.2,18.3-0.2,28c1.5,0,2.9,0,4.3,0c19.1,0,38.1,0,57.2,0
		c8.9,0,12.3,3.4,12.3,12.3c0,16.4,0,32.8,0,49.2c0,8.7-3.4,12.1-12.1,12.1c-19.1,0-38.1,0-57.2,0c-1.4,0-2.9,0-4.9,0
		c0,2,0,3.7,0,5.4c0,61.9,0,123.7,0,185.6c0,1.6,0,3.2-0.2,4.8c-0.8,5.7-4.1,8.9-9.9,9c-24.3,0.1-48.5,0.1-72.8,0
		c-5.9,0-9.3-3.4-10-9.3c-0.2-1.6-0.1-3.2-0.1-4.8c0-61.7,0-123.5,0-185.2c0-1.7,0-3.4,0-5.6c-1.8,0-3.3,0-4.7,0
		c-18.9,0-37.9,0-56.8,0c-9.1,0-12.5-3.4-12.5-12.6c0-16.3,0-32.5,0-48.8c0-8.7,3.4-12.1,12.1-12.1c17.2,0,34.4,0,51.6,0
		c1.4,0,2.9,0,5,0c0-3.1,0-5.8,0-8.6c0.4-19.2,2.1-38.3,8.1-56.7c11.5-35,35.6-55.5,71.1-63.5c4.5-1,9.1-1.6,13.7-2.5
		C186.7,0,211.8,0,236.9,0z M19.1,185.6c1.9,0,3.3,0,4.7,0c18.7,0,37.3,0,56,0c10.1,0,13.1,3,13.1,13.2c0,62.1,0,124.2,0,186.4
		c0,1.7,0,3.4,0,5.1c18.6,0,36.7,0,55.1,0c0-1.8,0-3.4,0-5c0-62.3,0-124.5,0-186.8c0-9.4,3.3-12.7,12.7-12.7c18.9,0,37.9,0,56.8,0
		c1.5,0,3.1-0.2,4.5-0.2c0-12,0-23.5,0-35.3c-1.8,0-3.2,0-4.7,0c-19.2,0-38.4,0-57.6,0c-7.5,0-11.5-3.6-11.6-10.7
		c-0.1-11.5-0.5-23,0.1-34.4c0.9-18,9-32.1,25-41.1c8.5-4.8,17.9-6.9,27.6-7.2c8.2-0.2,16.5,0,24.9,0c0-12.8,0-25.1,0-37.6
		c-1-0.1-1.8-0.1-2.6-0.1c-18.1,0-36.3-0.5-54.4,0.2c-9.2,0.4-18.7,1.8-27.4,4.7c-29.5,9.7-44.2,32.2-50.1,61.4
		c-3.5,17.3-3.8,34.9-3.8,52.5c0,8.9-3.5,12.3-12.3,12.4c-17.2,0-34.4,0-51.6,0c-1.4,0-2.8,0-4.4,0
		C19.1,162.2,19.1,173.7,19.1,185.6z"/>
	</symbol>


	<symbol id="svg_envelope" viewBox="0 0 409.6 322">
			<path d="M0,289.8C0,204,0,118.1,0,32.2c0.1-0.2,0.4-0.4,0.4-0.7C2.8,13.7,19.2-0.6,39.5,0c19.4,0.6,38.9,0.1,58.4,0.1
		c90.9,0,181.8,0.2,272.7-0.1c21.9-0.1,39,16.4,39,37.6c-0.1,82.2,0,164.5-0.2,246.7c0,5.6-1.2,11.6-3.6,16.6
		c-7.1,14.6-19.4,21-35.6,21c-110.2-0.1-220.5-0.1-330.7-0.1c-2.3,0-4.5,0-6.8-0.3c-7.1-0.7-13.3-3.3-18.9-7.8
		C6,307.6,2,299.3,0,289.8z M204.4,29.3c-54.5,0-109,0-163.5,0c-1.6,0-3.2,0-4.8,0.2c-4.3,0.6-6.7,3.2-6.7,7.5
		c-0.1,9.8,1.7,19.3,5.3,28.5c6.1,15.3,16.7,27,29.4,37.1c33.7,26.8,67.3,53.6,101.1,80.3c7.4,5.9,15.1,11.4,23,16.6
		c10.8,7.1,22.1,7,33.1,0.1c5.6-3.6,11.3-7.2,16.5-11.3c35-27.7,69.8-55.6,104.8-83.3c10.5-8.3,19.3-17.9,26.6-29
		c7.7-11.8,12.4-24.4,11-38.8c-0.5-5.1-2-7-7.1-7.7c-1.6-0.2-3.2-0.2-4.8-0.2C313.7,29.3,259.1,29.3,204.4,29.3z M380.3,110.6
		c-6.5,5.8-12.1,11.2-18.2,16.1c-31.7,25.4-63.6,50.6-95.4,75.9c-11.7,9.3-22.8,19.2-36.8,25.3c-8.7,3.8-17.4,6.6-27,6.1
		c-16.8-1-31-8.5-43.8-18.5c-33.4-26.1-66.4-52.7-99.4-79.2c-10.1-8.1-20.1-16.5-30.3-25c0,1.2,0,2.6,0,4c0,55.5,0,110.9,0,166.4
		c0,9,2.1,11.1,11,11.1c109.7,0,219.4,0,329.2,0c8.7,0,10.8-2.2,10.8-10.9c0-55.6,0-111.2,0-166.8
		C380.3,113.8,380.3,112.5,380.3,110.6z"/>
	</symbol>


	<symbol id="svg_calendar" viewBox="0 0 409.4 385.3">
			<path d="M0,38.3c3.5-8.2,9.7-11,18.5-10.6c10.2,0.5,20.5,0.1,31.1,0.1c0-4.4,0-8.5,0-12.6c0.1-9,5.9-15.3,14-15.3
		c8.1,0,13.8,6.3,13.9,15.4c0.1,4,0,8,0,12.2c70,0,139.8,0,210.3,0c0-5.1-0.3-10.2,0.1-15.2c0.4-6.1,4.6-10.6,10.6-12
		c5.5-1.3,11.6,0.9,14.5,5.9c1.4,2.4,2,5.5,2.3,8.3c0.4,4.2,0.1,8.5,0.1,13c1.6,0.1,2.9,0.2,4.2,0.2c9.1,0,18.2,0.4,27.2-0.1
		c12.4-0.7,18.5,5.6,18.4,18.6c-0.4,41.9-0.1,83.7-0.2,125.6c0,3.3,0.8,5.6,3.4,7.9c30.1,26.6,44,60,40.5,100
		c-2.5,28.9-14.8,53.4-35.8,73.4c-21.2,20.2-46.7,31-75.9,32.1c-30.1,1.1-56.9-8.3-80-27.7c-12.6-10.6-22.6-23.4-29.6-38.3
		c-1.2-2.6-3-2.5-5.1-2.5c-52.9,0-105.8,0-158.8,0c-1.7,0-3.5-0.2-5.2,0c-8.7,0.9-15-2.2-18.5-10.5C0,217,0,127.7,0,38.3z
		 M200.7,196.5c-6.9-5.4-9.1-10.8-7-17.2c2.1-6.4,7.5-9.5,16.3-9.6c2.9,0,5.9-0.4,8.8,0.1c7.3,1.1,13.3-1.1,19.8-4.5
		c30.6-16,62.5-17.8,95.1-6.1c1,0.4,2.1,0.6,3.4,0.9c0-35,0-69.5,0-104.2c-7.2,0-14.2,0-21.7,0c0,2.9,0.1,5.5,0,8.1
		c-0.3,7.8-5.8,13.5-13.3,13.7c-7.7,0.3-13.6-5.2-14.2-13.2c-0.2-2.9,0-5.7,0-8.6c-70.5,0-140.3,0-210.3,0c0,3.1,0.2,5.9,0,8.7
		c-0.7,7.8-6.6,13.1-14,13C55.7,77.7,50,72,49.6,64c-0.1-2.6,0-5.3,0-8c-7.4,0-14.4,0-21.4,0c0,77.7,0,155.2,0,232.6
		c50,0,99.6,0,149.3,0C172.3,254.4,180.1,223.8,200.7,196.5z M203.7,268.6c-0.1,49,39.8,89,89,89c49,0,89-39.9,89-89
		c0-49-40-89.1-89-89.1C243.7,179.6,203.8,219.5,203.7,268.6z"/>
	<path d="M150,197.6c-2.8,0-5.6,0.1-8.4,0c-7.4-0.3-13.2-5.9-13.6-13.1c-0.4-7,4.5-13.6,11.7-14.3c6.8-0.6,13.8-0.6,20.7,0
		c7.2,0.7,11.9,7.1,11.6,14.3c-0.3,7-6,12.6-13.2,13C155.9,197.7,153,197.5,150,197.6C150,197.5,150,197.6,150,197.6z"/>
	<path d="M85.1,197.5c-2.9,0-5.9,0.1-8.8,0c-7.2-0.3-12.8-6-13.2-13c-0.4-7.2,4.4-13.6,11.6-14.3c6.8-0.6,13.8-0.6,20.7,0
		c7.2,0.7,12.1,7.3,11.7,14.3c-0.5,7.2-6.2,12.8-13.6,13C90.7,197.6,87.9,197.6,85.1,197.5C85.1,197.6,85.1,197.5,85.1,197.5z"/>
	<path d="M85.2,143.2c-3.1,0-6.1,0.1-9.2,0c-7.1-0.4-12.7-6.2-12.8-13.3c-0.2-7.2,4.8-13.5,11.9-14c6.6-0.5,13.3-0.5,19.9,0
		c7.1,0.5,12.3,6.9,12.1,13.9c-0.2,7.2-5.9,13.1-13.2,13.4C91,143.3,88.1,143.2,85.2,143.2C85.2,143.2,85.2,143.2,85.2,143.2z"/>
	<path d="M149.8,143.2c-2.9,0-5.9,0.1-8.8,0c-7.1-0.4-12.7-6.2-13-13.2c-0.3-7.1,4.8-13.6,11.9-14.1c6.7-0.5,13.6-0.5,20.3,0
		c7.1,0.5,12,7,11.7,14.2c-0.3,6.9-5.7,12.6-12.6,13.1C156.2,143.4,153,143.2,149.8,143.2C149.8,143.2,149.8,143.2,149.8,143.2z"/>
	<path d="M214.8,143.2c-2.9,0-5.9,0.1-8.8,0c-7.1-0.4-12.7-6.1-13-13.3c-0.3-7,5-13.5,12.1-14c6.6-0.5,13.3-0.5,20,0
		c7.2,0.5,12.1,6.8,11.9,14.1c-0.2,7.2-5.7,12.8-12.9,13.2C220.9,143.3,217.8,143.2,214.8,143.2z"/>
	<path d="M279.6,143.2c-2.9,0-5.9,0.1-8.8,0c-7.1-0.4-12.6-6.2-12.8-13.4c-0.2-6.9,4.8-13.4,11.7-13.9c6.7-0.5,13.6-0.5,20.3,0
		c7.2,0.5,12.1,6.9,11.8,14.2c-0.3,7-5.6,12.6-12.6,13.1C286,143.4,282.8,143.2,279.6,143.2z"/>
	<path d="M85,251.2c-3.1,0-6.1,0.2-9.2,0c-7.2-0.5-12.6-6.3-12.7-13.5c-0.1-7.2,5.1-13.4,12.2-13.8c6.5-0.4,13.1-0.4,19.6,0
		c6.9,0.4,12.1,6.6,12.2,13.6c0,7.1-5.5,13.2-12.5,13.7C91.5,251.4,88.2,251.2,85,251.2C85,251.2,85,251.2,85,251.2z"/>
	<path d="M149.9,251.2c-3.1,0-6.1,0.2-9.2,0c-7.1-0.5-12.5-6.4-12.7-13.5c-0.1-7.1,5.2-13.4,12.3-13.8c6.5-0.4,13-0.4,19.5,0
		c7.1,0.4,12.3,6.6,12.2,13.8c-0.1,7.1-5.5,13-12.6,13.5C156.3,251.4,153.1,251.2,149.9,251.2z"/>
	<path d="M301.6,263.1c10.2,0,19.9-0.2,29.6,0.1c9.3,0.2,15.6,9.1,12.8,17.9c-1.6,5.1-5.1,8.3-10.4,9.4c-1.7,0.3-3.4,0.4-5.2,0.4
		c-12.8,0-25.6,0.1-38.4,0c-10.8,0-16.3-5.5-16.3-16.2c0-17.8,0-35.7,0-53.5c0-8.1,4.7-13.9,11.6-14.9c9-1.3,16.1,4.9,16.2,14.3
		c0.1,12.5,0,25,0,37.6C301.6,259.6,301.6,261,301.6,263.1z"/>
	</symbol>


	<symbol id="svg_user" viewBox="0 0 409.3 409.6">
		<path d="M193.6,0c7.5,0,14.9,0,22.4,0c7.7,1.3,15.5,2.2,23.1,4.1c28.1,6.9,48.9,23,60.5,49.9c11.6,26.9,11.9,55.3,9.3,83.7
		c-2.4,25.5-13,48.4-26.9,69.8c-4.6,7.1-9.7,13.9-15.1,21.6c8.7,4.9,17.1,10,25.8,14.6c20.5,10.8,41.2,21.3,61.6,32.1
		c17.7,9.4,32.6,21.6,41.5,40.1c7.4,15.3,11.6,31.5,12.9,48.3c0.5,6.3,1,13-0.4,19c-3.6,16.2-17.1,26.2-34.2,26.2
		c-24.5,0.1-49.1,0-73.6,0c-88,0-176,0-264,0c-9.9,0-18.6-2.7-25.9-9.5C4.8,394.6,2,387.5,0,380c0-3.7,0-7.5,0-11.2
		c1.1-7.1,2-14.2,3.3-21.3c6-32.5,22.7-57.2,52.7-72.3c21.3-10.7,42.4-21.8,63.4-32.9c7.9-4.1,15.4-8.9,23.1-13.3
		c-5.9-8.5-11.6-16.2-16.7-24.3c-11.1-17.7-19.9-36.5-23.6-57.2c-4.6-25.9-4-51.9,2.3-77.3c8.8-35.3,31.2-57.7,66.7-66.3
		C178.6,2.2,186.2,1.3,193.6,0z M232.6,230.2c1.1-1.3,2.2-2.6,3.2-4c8.8-11.6,18-22.8,26.1-34.8c9.9-14.7,17.1-30.8,20.3-48.3
		c4-21.7,3-43.6-1.6-65.1c-4.6-21.7-16.8-38-38.1-45.8c-24.1-8.9-48.6-8.9-72.9-1c-20.5,6.6-33.3,21.2-39.5,41.8
		c-3.4,11.4-4.1,23-4.8,34.7c-1.3,21.5,1.5,42.2,10.5,62c7.9,17.5,18.6,33.2,30.8,47.9c3.5,4.3,7,8.6,10.7,13.2
		c-6.8,6.2-12.7,13-19.8,17.9c-11.6,7.9-24,14.9-36.3,21.7c-21,11.5-42.3,22.5-63.3,34c-9.6,5.3-16.5,13.3-21.3,23.2
		c-7,14.5-10.1,30-10.9,45.9C25.3,380.4,28.8,384,36,384c112.5,0,225,0,337.6,0c7.4,0,11-3.5,10.3-11c-0.9-9.1-2-18.3-4.2-27.2
		c-4.6-19.1-14.2-34.9-32.3-44.4c-20.6-10.8-41.1-21.9-61.9-32.5C265.9,258.9,247.3,247.7,232.6,230.2z"/>
	</symbol>


	<symbol id="svg_search" viewBox="0 0 395.7 409.5">
		<path d="M176.4,0c7,1,14,1.8,20.9,3.2c34.5,6.8,63.9,23.1,88.1,48.5c23.4,24.6,38.1,53.8,43.5,87.3c5.5,34.4,0.8,67.5-14.8,98.7
		c-5.9,11.8-13.6,22.8-20.9,34.8c0.2,0.2,1.1,1.2,2.1,2.2c31,32.2,61.9,64.4,92.9,96.6c8.4,8.7,9.9,18.8,4.4,28
		c-6.7,11.1-22,13.6-31.9,5.2c-1.5-1.3-2.9-2.7-4.3-4.2c-31-32.2-61.9-64.4-92.9-96.6c-0.9-1-1.6-2.1-1.9-2.6
		c-10.6,5.6-20,11.4-30.1,15.7c-45.2,19.1-90.6,19.1-135.1-1.8c-46.6-21.9-77-58.2-90.3-107.9C-5.9,163.2,0,121,23.4,81.7
		C48.1,40.2,84.5,14.3,131.6,3.6c7.6-1.7,15.5-2.4,23.2-3.6C162,0,169.2,0,176.4,0z M165.6,43.2C98.3,43.3,43.5,98.1,43.5,165.4
		c0,67.3,54.6,121.9,122,122.2c67.2,0.3,122.5-55.2,122.2-122.4C287.5,97.7,232.8,43.1,165.6,43.2z"/>
	</symbol>


	<symbol id="svg_cross" viewBox="0 0 408.7 410.4">
		<path d="M0,24.2C7.7,16.2,15.3,8.3,23.3,0c60.7,61,120.6,121.2,181,181.9C265,120.9,325.1,60.6,384.9,0.4
		c8.4,8.5,16.1,16.2,23.5,23.6c-59.6,60-119.6,120.4-179.3,180.5c60,60.4,119.9,120.7,179.5,180.7c-7.6,7.6-15.3,15.4-23.5,23.6
		c-59.6-59.9-119.6-120.2-180-181C144.5,289,84.4,349.3,23.7,410.4c-8.4-8.7-16-16.6-23.7-24.6c0-0.3,0-0.5,0-0.8
		c1.1-0.9,2.3-1.7,3.3-2.7c58.1-58,116.2-115.9,174.4-173.9c1.1-1.1,2.7-1.6,4.2-2.5c-1.7-1.8-2.2-2.4-2.8-3
		C120.2,144.2,61.3,85.5,2.5,26.8C1.8,26.1,0.8,25.6,0,25C0,24.7,0,24.4,0,24.2z"/>
	</symbol>


	<symbol id="svg_timer" viewBox="0 0 361.9 409.7">
		<path d="M217,0c0,7.8,0,15.7,0,24c-8.1,0-15.8,0-23.8,0c0,8.2,0,16,0,24.1c40.4,3,76,17.8,106.6,44.1c6.8-6.9,13.5-13.6,19.8-20
				c6.1,6,11.6,11.5,17.3,17.2c-6.4,6.3-13,12.9-19.9,19.7c34.3,40.6,49.1,87,43.8,139.4c-3.9,38.7-19.5,72.6-45.5,101.4
				c-53.7,59.4-136.7,74.8-205.8,44.9C37.6,363.8-4.3,291.8,0.3,215.5C4.9,140.5,67.3,54.9,168.8,47.8c0-7.8,0-15.6,0-23.7
				c-7.9,0-15.6,0-23.8,0c0-8.2,0-16.2,0-24.1C169,0,193,0,217,0z M337.9,228.8c0.1-86.4-70.4-157-156.8-157.1
				c-86.3-0.1-157,70.5-157,157c0,86.2,70.4,156.7,156.6,156.9C267,385.8,337.8,315.2,337.9,228.8z"/>
			<path d="M181,361.6c-73.2,0-133.2-60.2-132.9-133.2C48.5,155.1,108,95.7,181.1,95.7c73.3,0.1,133.1,60,132.9,133.1
				C313.6,302.1,254,361.6,181,361.6z M289.2,216.7c-2.4-21.1-10.1-39.5-23.4-56.4c-6.2,6.3-12.2,12.4-17.7,18
				c-5.8-5.8-11.3-11.3-17.3-17.2c5.7-5.7,11.7-11.7,17.9-17.8c-16.3-12.8-34.7-20.6-55.9-22.9c0,9,0,17.5,0,25.9
				c-8.1,0-15.8,0-23.8,0c0-8.7,0-17.2,0-25.9c-21.1,2.4-39.4,10.2-56.1,23.3c6.3,6.2,12.4,12.2,18,17.6c-5.8,5.8-11.4,11.4-17.4,17.4
				c-5.6-5.7-11.5-11.8-17.6-18c-12.9,16.5-20.7,34.8-23.1,55.9c8.9,0,17.3,0,25.9,0c0,8.2,0,16,0,24.1c-8.7,0-17.1,0-25.9,0
				c2.4,21,10.1,39.3,23.4,56.1c6.2-6.4,12.2-12.5,18-18.5c5.8,5.8,11.3,11.3,17.4,17.3c-6,5.9-12.2,11.8-18.5,18
				c16.6,13,34.9,20.7,56.1,23.1c0-8.9,0-17.5,0-26.1c8.2,0,15.8,0,23.8,0c0,8.7,0,17.2,0,25.7c15.7,0.2,46.5-12.7,55.9-23.6
				c-6-5.9-12.1-11.9-17.6-17.3c5.7-5.7,11.1-11.3,17.3-17.4c5.6,5.9,11.5,12,17.6,18.3c12.9-16.5,20.7-34.8,23.1-55.9
				c-8.9,0-17.4,0-26,0c0-8.1,0-15.8,0-23.9C271.9,216.7,280.4,216.7,289.2,216.7z"/>
			<path d="M169,170.7c8.2,0,15.8,0,24,0c0,5.8,0.3,11.5-0.1,17.1c-0.5,6.5,0.6,10.8,7.1,14.6c11.3,6.6,16.1,21.5,12.8,34
				c-3.6,13.5-14.3,23-27.8,24.6c-16.3,1.9-30.5-7.5-35.3-23.5c-4.5-14.8,2.4-30.8,16.7-38c2.1-1.1,2.8-2.2,2.8-4.5
				C169,187,169,179,169,170.7z M181.2,237.4c4.6-0.1,8.6-4.2,8.6-8.8c0-4.8-4.2-8.8-9.1-8.7c-4.7,0.2-8.6,4.3-8.4,8.9
				C172.4,233.5,176.6,237.5,181.2,237.4z"/>
	</symbol>


	<symbol id="svg_check" viewBox="0 0 409.6 300.4">
		<path d="M0,148.6c12.2-12.3,24.3-24.7,36.5-36.9c2.6-2.6,5.7-2.4,8.6,0.1c0.9,0.8,1.7,1.7,2.6,2.5c33,33,66,66,99,99
		c1,1,1.7,2.4,3.2,4.6c1.7-2.3,2.5-3.8,3.6-4.9C223,143.4,292.6,73.8,362.2,4.3c5.7-5.7,7.6-5.7,13.4,0.1
		c10.2,10.2,20.4,20.4,30.5,30.6c4.6,4.7,4.6,7-0.1,11.7c-83.4,83.4-166.8,166.9-250.3,250.3c-4.6,4.6-7.1,4.6-11.7,0
		C97.2,250.1,50.3,203.2,3.5,156.3c-1.2-1.2-2.3-2.5-3.5-3.7C0,151.3,0,149.9,0,148.6z"/>
	</symbol>


</svg>
